<?xml version="1.0" standalone="no"?>
<!DOCTYPE svg PUBLIC "-//W3C//DTD SVG 20010904//EN"
 "http://www.w3.org/TR/2001/REC-SVG-20010904/DTD/svg10.dtd">
<svg version="1.0" xmlns="http://www.w3.org/2000/svg"
 width="666.000000pt" height="375.000000pt" viewBox="0 0 666.000000 375.000000"
 preserveAspectRatio="xMidYMid meet">

<g transform="translate(0.000000,375.000000) scale(0.100000,-0.100000)"
fill="#000000" stroke="none">
<path d="M3178 3262 c-38 -2 -48 -7 -48 -21 0 -27 -10 -32 -34 -16 -24 18 -57
19 -108 4 -41 -11 -48 -31 -28 -83 l10 -26 384 0 384 0 6 23 c3 12 6 34 6 49
0 23 -6 29 -37 37 -51 14 -69 14 -103 -4 -27 -14 -29 -14 -32 8 -3 19 -11 23
-56 27 -48 5 -56 3 -73 -18 -21 -28 -49 -23 -49 8 0 17 -6 20 -50 20 -47 0
-50 -2 -50 -25 0 -31 -16 -32 -49 -2 -21 17 -36 21 -73 19z m214 -24 c2 -19
10 -24 46 -26 37 -3 42 -1 42 18 0 19 5 21 42 18 34 -2 44 -7 47 -23 2 -11 8
-23 15 -27 15 -10 78 -10 72 0 -2 4 -1 13 3 20 5 8 17 9 44 1 32 -9 37 -14 37
-39 0 -16 -4 -32 -10 -35 -5 -3 -10 3 -10 14 0 27 -30 27 -37 0 -4 -16 -11
-19 -32 -15 -14 3 -42 8 -63 12 -27 4 -38 12 -42 30 -8 30 -24 31 -35 2 -8
-21 -14 -23 -74 -20 -54 3 -66 7 -70 23 -7 25 -27 24 -34 -1 -5 -18 -14 -20
-74 -20 -55 0 -69 3 -69 15 0 21 -28 19 -35 -4 -4 -13 -21 -21 -65 -28 -54 -9
-60 -8 -66 9 -7 24 -34 23 -34 -2 0 -24 -15 -27 -24 -4 -14 37 -6 53 32 63 50
14 52 14 52 -9 0 -14 7 -20 23 -20 46 0 67 12 67 36 0 21 5 24 40 24 33 0 40
-3 40 -20 0 -17 7 -20 45 -20 41 0 45 2 45 25 0 22 4 25 39 25 33 0 40 -4 43
-22z"/>
<path d="M2882 2937 l-113 -113 31 -65 c70 -151 75 -282 14 -453 -42 -118 -56
-253 -34 -331 17 -62 35 -44 19 19 -19 76 -6 186 36 306 61 172 56 320 -13
460 l-29 58 106 106 106 106 345 0 345 0 105 -105 106 -106 -28 -59 c-74 -153
-75 -307 -4 -494 40 -103 44 -206 15 -315 -2 -7 1 -15 7 -18 20 -7 37 93 31
186 -3 60 -13 107 -32 156 -34 88 -55 177 -55 235 0 68 26 176 60 249 l31 65
-113 113 -113 113 -355 0 -355 0 -113 -113z"/>
<path d="M3212 2804 c-7 -12 -14 -14 -28 -7 -10 6 -30 7 -44 2 -24 -7 -24 -7
-2 -8 12 -1 22 -5 22 -11 0 -5 13 -10 29 -10 20 0 30 6 34 20 6 24 47 28 47 5
0 -10 10 -15 30 -15 19 0 30 5 30 14 0 9 13 16 33 19 31 4 31 4 -5 5 -28 2
-38 -2 -38 -13 0 -8 -5 -15 -10 -15 -6 0 -13 7 -16 15 -8 21 -70 20 -82 -1z"/>
<path d="M3420 2805 c-7 -8 -16 -12 -21 -9 -5 3 -9 0 -9 -5 0 -6 11 -11 25
-11 16 0 25 6 25 15 0 24 51 19 57 -5 6 -22 49 -28 55 -8 5 15 58 2 58 -15 -1
-34 -15 -38 -90 -26 -74 11 -329 7 -382 -6 -22 -6 -27 -3 -31 16 l-4 24 -2
-23 c0 -13 10 -34 24 -48 l24 -24 -38 -123 c-21 -67 -41 -131 -45 -143 -6 -18
-3 -20 24 -16 23 3 30 0 30 -12 0 -9 -10 -21 -22 -26 -17 -8 -7 -9 35 -4 53 5
58 4 55 -12 -2 -13 -16 -21 -48 -26 -25 -4 -57 -9 -72 -12 -26 -5 -26 -4 -16
24 5 16 8 35 6 42 -2 6 -12 -16 -22 -50 -10 -38 -22 -62 -31 -62 -19 0 -47
-30 -41 -45 3 -8 -4 -10 -20 -7 -32 6 -31 -16 1 -24 14 -3 23 -9 21 -13 -2 -3
13 -5 35 -3 21 2 39 7 39 11 0 4 37 7 83 6 80 -1 147 -22 147 -45 0 -14 -12
-12 -50 6 -26 14 -51 16 -123 11 -50 -3 -93 -11 -97 -17 -10 -16 -63 -1 -56
16 3 8 1 14 -4 14 -6 0 -10 -11 -10 -24 0 -13 -7 -26 -15 -30 -8 -3 -15 -1
-15 4 0 6 5 10 10 10 6 0 10 7 10 15 0 8 -7 15 -15 15 -8 0 -15 4 -15 9 0 5
10 7 23 4 18 -5 20 -3 10 7 -16 17 -50 20 -82 8 -21 -7 -23 -13 -18 -48 3 -25
1 -38 -5 -34 -6 4 -7 -8 -4 -32 17 -114 18 -116 35 -110 9 3 52 16 95 29 44
13 73 27 65 29 -8 3 -11 9 -7 13 4 4 14 2 22 -4 11 -10 32 -10 88 -2 40 6 117
12 171 15 53 3 101 8 106 11 5 3 11 1 13 -4 1 -5 49 -11 105 -13 57 -1 103 -6
103 -9 0 -4 20 -9 45 -12 24 -4 81 -19 125 -33 44 -15 84 -24 88 -20 3 4 8 53
10 110 l4 103 -52 22 c-33 14 -62 20 -79 16 -14 -3 -21 -2 -14 2 14 10 5 27
-18 36 -11 3 -26 35 -39 81 -16 53 -28 76 -39 77 -9 0 -42 4 -73 8 -32 4 -58
4 -58 0 0 -3 31 -9 69 -13 63 -6 81 -16 81 -42 0 -2 -31 -1 -70 2 l-70 7 0
-27 c0 -21 -4 -27 -17 -24 -25 5 -29 45 -6 51 14 4 13 5 -4 6 -28 1 -32 37 -5
44 16 4 16 5 0 6 -12 1 -18 9 -18 25 0 13 -3 31 -6 39 -4 11 2 17 23 20 l28 4
-31 2 c-28 1 -70 31 -59 42 2 3 -23 5 -57 5 -39 0 -63 4 -66 12 -3 9 22 12 94
12 53 0 95 2 92 5 -3 3 -63 5 -134 6 -142 0 -232 -10 -199 -21 11 -4 35 -3 55
1 54 13 80 11 80 -6 0 -11 -12 -15 -47 -16 -27 0 -42 -3 -35 -6 17 -7 15 -30
-4 -37 -9 -3 -30 -6 -47 -6 -23 0 -28 -3 -18 -9 8 -5 19 -8 25 -6 6 2 30 6 54
9 32 5 42 3 42 -8 0 -16 -29 -25 -80 -27 -19 0 -44 -5 -55 -10 -14 -6 -6 -7
28 -3 42 5 47 3 47 -14 0 -16 -9 -20 -57 -25 -32 -3 -59 -4 -61 -2 -6 6 18 75
26 75 4 0 8 16 9 34 1 19 8 50 16 68 8 18 17 41 21 51 3 9 10 17 16 17 14 0
13 -27 -2 -33 -7 -2 8 -6 35 -8 26 -2 47 -1 47 3 0 5 33 9 73 10 47 1 58 3 30
5 -47 4 -60 28 -20 36 12 2 0 6 -28 7 -54 3 -63 3 -114 -7 -26 -5 -33 -3 -29
8 9 28 285 44 362 22 32 -10 48 -33 22 -33 -9 0 -16 -4 -16 -10 0 -5 6 -7 13
-4 8 3 20 -2 27 -11 11 -13 8 -15 -21 -16 l-34 -2 34 -6 c43 -8 53 -31 14 -32
l-28 -1 29 -7 c39 -8 50 -36 12 -29 -15 3 -24 2 -19 -2 4 -5 17 -10 28 -12 11
-2 21 -10 23 -18 2 -13 -6 -15 -40 -12 -51 5 -48 -5 3 -11 40 -4 59 -13 59
-28 0 -6 -27 -8 -67 -5 l-68 5 65 -10 c39 -6 70 -16 78 -26 18 -25 15 -9 -27
126 -38 122 -38 125 -19 140 10 9 21 33 24 53 6 35 5 37 -31 47 -24 6 -44 7
-55 1 -13 -7 -20 -6 -24 5 -7 20 -70 20 -86 0z m-120 -150 c0 -11 -11 -15 -39
-15 -22 0 -46 -3 -55 -6 -10 -4 -16 -1 -16 9 0 16 22 23 78 26 22 1 32 -3 32
-14z m-16 -120 c-6 -16 -54 -21 -54 -7 0 15 12 22 36 22 17 0 22 -4 18 -15z
m-34 -90 c0 -8 -7 -15 -15 -15 -8 0 -15 7 -15 15 0 8 7 15 15 15 8 0 15 -7 15
-15z m0 -48 c0 -8 -22 -17 -60 -23 -53 -9 -60 -8 -60 6 0 26 9 30 67 30 37 0
53 -4 53 -13z m-10 -52 c0 -8 -9 -15 -20 -15 -11 0 -20 7 -20 15 0 8 9 15 20
15 11 0 20 -7 20 -15z m427 -12 c7 -9 11 -18 8 -21 -2 -2 -36 -1 -74 3 -62 6
-71 10 -71 27 0 19 4 20 63 14 39 -5 67 -13 74 -23z m-427 -33 c0 -5 -15 -10
-34 -10 -18 0 -48 -3 -65 -6 -19 -4 -31 -2 -31 4 0 6 15 13 33 15 64 8 97 7
97 -3z m366 -5 c18 -14 18 -14 -7 -15 -47 0 -119 13 -119 21 0 15 105 10 126
-6z m-508 -7 c-3 -7 -19 -15 -37 -19 -38 -8 -38 12 0 22 36 10 41 10 37 -3z
m587 -9 c5 -5 -4 -9 -23 -9 -22 0 -32 5 -32 16 0 11 6 14 23 9 12 -4 26 -11
32 -16z m-130 -39 c129 -15 140 -20 81 -37 -36 -11 -46 -17 -35 -24 8 -5 9 -9
2 -9 -6 0 -20 -3 -30 -6 -13 -4 -15 -3 -4 4 10 7 10 11 1 17 -19 12 -211 21
-274 13 -34 -4 -66 -3 -76 2 -10 6 -47 13 -82 16 -35 3 -64 7 -66 9 -2 2 36 6
85 10 48 3 93 8 98 10 22 8 215 4 300 -5z m-529 -41 c-14 -11 -31 -17 -37 -13
-7 4 -1 12 17 20 43 19 50 16 20 -7z m784 -13 c14 -1 34 -7 43 -13 17 -9 17
-11 2 -23 -13 -11 -15 -10 -10 3 6 13 1 14 -32 7 -23 -6 -39 -5 -41 0 -6 16
-69 22 -106 10 -20 -6 -34 -15 -31 -20 3 -4 -4 -6 -15 -3 -15 4 -18 9 -10 18
5 6 6 16 2 20 -4 5 0 6 9 3 9 -4 22 -2 30 3 12 9 44 8 159 -5z m-360 -9 c0 -5
-7 -6 -16 -3 -9 4 -23 1 -31 -5 -11 -10 -17 -9 -28 2 -12 12 -8 14 30 15 25 0
45 -3 45 -9z m-160 -12 c0 -8 -5 -15 -11 -15 -5 0 -8 4 -4 9 3 5 -3 12 -12 14
-14 4 -13 5 5 6 13 1 22 -5 22 -14z m85 -14 c-6 -5 -13 -7 -60 -14 -16 -2 -22
-2 -12 0 12 3 17 11 14 22 -4 16 -1 17 29 8 19 -6 32 -13 29 -16z m175 25 c0
-2 -7 -7 -16 -10 -8 -3 -12 -2 -9 4 6 10 25 14 25 6z m-713 -28 c-3 -8 -6 -5
-6 6 -1 11 2 17 5 13 3 -3 4 -12 1 -19z m656 15 c-13 -2 -23 -9 -23 -14 0 -5
-9 -9 -21 -9 -11 0 -17 -4 -14 -10 4 -6 -2 -7 -14 -2 -23 8 -28 25 -10 31 7 2
9 -1 5 -8 -9 -15 -4 -14 30 4 16 8 38 14 49 14 17 -2 17 -2 -2 -6z m244 -10
c0 -15 -13 -17 -22 -3 -10 17 -25 11 -19 -7 5 -15 4 -15 -4 -3 -6 8 -9 17 -6
21 7 12 51 5 51 -8z m-853 -23 c-6 -6 -10 -3 -10 10 0 13 4 16 10 10 7 -7 7
-13 0 -20z m631 9 c-4 -6 2 -5 14 2 16 11 27 11 54 1 18 -7 42 -13 53 -13 11
-1 7 -4 -11 -8 -16 -4 -38 -3 -49 2 -12 6 -27 5 -43 -2 -33 -15 -39 -14 -40 9
-1 12 4 20 13 20 8 0 12 -5 9 -11z m-448 -15 c-3 -3 -12 -4 -19 -1 -8 3 -5 6
6 6 11 1 17 -2 13 -5z m169 -9 c10 -8 14 -15 8 -15 -5 0 -19 7 -30 15 -10 8
-14 15 -8 15 5 0 19 -7 30 -15z m144 -5 c18 -14 28 -16 38 -8 9 8 11 7 7 -4
-7 -17 40 -42 58 -32 9 5 9 4 0 -6 -9 -10 -21 -10 -61 0 -39 10 -62 11 -108 2
-70 -15 -94 -15 -94 -2 0 6 12 10 26 10 16 0 23 4 18 11 -5 9 1 10 20 5 20 -5
26 -3 21 5 -5 8 -1 9 15 4 14 -5 20 -3 16 3 -4 6 2 8 14 5 27 -7 25 5 -2 17
-13 5 -16 9 -8 9 8 0 26 -8 40 -19z m345 9 c-14 -6 -7 -8 25 -4 40 4 42 4 15
-5 -16 -6 -40 -8 -52 -5 -12 3 -24 1 -27 -3 -3 -5 8 -9 24 -10 45 -1 107 -49
68 -53 -7 -1 -16 -1 -20 0 -5 0 -8 -3 -8 -9 0 -5 -7 -10 -15 -10 -8 0 -15 5
-15 10 0 6 -12 10 -26 10 -14 0 -23 4 -19 10 3 6 15 6 30 0 13 -5 33 -8 45 -7
20 1 20 2 4 14 -21 15 -50 16 -90 4 -16 -5 -42 -12 -58 -16 -25 -5 -28 -4 -18
8 7 8 9 17 5 21 -16 15 -9 32 14 34 38 3 49 -9 22 -25 l-24 -14 25 7 c14 3 32
14 40 24 16 19 36 28 60 29 10 0 8 -4 -5 -10z m-865 -3 c0 -3 -4 -8 -10 -11
-5 -3 -10 -1 -10 4 0 6 5 11 10 11 6 0 10 -2 10 -4z m460 0 c0 -7 -40 -14 -44
-7 -3 4 6 8 20 9 13 1 24 0 24 -2z m230 -12 l-25 -15 25 6 c17 4 21 3 11 -3
-10 -7 -10 -11 -1 -14 7 -2 -4 -4 -24 -5 -20 -1 -36 1 -36 4 0 10 46 42 60 42
9 0 5 -6 -10 -15z m-603 0 c-3 -3 -12 -4 -19 -1 -8 3 -5 6 6 6 11 1 17 -2 13
-5z m33 2 c0 -3 -4 -8 -10 -11 -5 -3 -10 -1 -10 4 0 6 5 11 10 11 6 0 10 -2
10 -4z m490 -12 c0 -2 -7 -4 -15 -4 -8 0 -15 4 -15 10 0 5 7 7 15 4 8 -4 15
-8 15 -10z m-567 -12 c-6 -4 12 -7 40 -8 29 0 68 -8 87 -16 l35 -16 -40 3
c-22 2 -52 6 -67 10 -20 5 -34 2 -54 -14 l-27 -21 34 -1 c32 -2 32 -2 6 -6
-32 -5 -67 20 -67 46 1 11 5 8 15 -9 14 -25 16 -24 19 8 2 22 16 45 24 37 4
-3 1 -9 -5 -13z m132 8 c3 -5 -1 -10 -9 -10 -9 0 -16 5 -16 10 0 6 4 10 9 10
6 0 13 -4 16 -10z m832 -12 c-3 -8 -6 -5 -6 6 -1 11 2 17 5 13 3 -3 4 -12 1
-19z m-1030 -30 c-3 -7 -5 -2 -5 12 0 14 2 19 5 13 2 -7 2 -19 0 -25z m268 4
c-7 -7 -55 8 -55 17 0 5 13 4 30 -2 16 -6 27 -13 25 -15z m98 11 c-7 -2 -19
-2 -25 0 -7 3 -2 5 12 5 14 0 19 -2 13 -5z m657 -3 c13 -9 13 -11 0 -20 -12
-8 -12 -12 -2 -18 9 -6 10 -15 3 -33 l-10 -24 0 24 c-1 14 -8 32 -17 42 -25
28 -5 49 26 29z m-894 -33 c1 -9 -2 -15 -7 -11 -5 3 -7 10 -3 15 3 6 -6 8 -23
4 -23 -4 -24 -4 -8 4 26 12 38 9 41 -12z m691 7 c-3 -3 -12 -4 -19 -1 -8 3 -5
6 6 6 11 1 17 -2 13 -5z m149 -12 c-3 -5 -16 -12 -28 -15 l-23 -6 24 20 c23
19 39 20 27 1z m-103 1 c-7 -2 -19 -2 -25 0 -7 3 -2 5 12 5 14 0 19 -2 13 -5z
m-838 -33 c-3 -5 -12 -10 -18 -10 -7 0 -6 4 3 10 19 12 23 12 15 0z"/>
<path d="M3595 2090 c-3 -6 1 -7 9 -4 18 7 21 14 7 14 -6 0 -13 -4 -16 -10z"/>
<path d="M3830 2050 c0 -5 5 -10 10 -10 6 0 10 5 10 10 0 6 -4 10 -10 10 -5 0
-10 -4 -10 -10z"/>
<path d="M3980 2691 c0 -20 -2 -22 -15 -11 -9 7 -18 10 -22 7 -3 -4 6 -12 20
-18 38 -17 44 -41 9 -37 -24 3 -27 0 -24 -22 2 -21 -4 -28 -30 -39 l-33 -13
36 -16 c20 -10 34 -23 32 -29 -3 -7 0 -19 4 -28 8 -14 13 -13 36 9 15 14 27
33 27 43 -1 17 -2 16 -17 -2 -15 -20 -15 -20 -10 3 5 20 1 22 -31 23 l-37 2
35 6 c19 4 39 4 45 -1 16 -14 27 -8 22 12 -3 11 -1 20 4 20 5 0 9 -9 9 -20 0
-11 4 -20 8 -20 5 0 17 9 27 20 10 11 23 20 29 20 6 0 -3 -13 -20 -29 -32 -29
-32 -29 -10 -40 l21 -12 -23 5 c-12 2 -20 0 -16 -5 3 -5 11 -9 18 -9 9 0 14
-13 14 -37 0 -53 7 -76 21 -81 10 -3 10 0 1 18 -6 12 -9 24 -7 27 3 2 11 -5
17 -17 l12 -22 29 28 c36 35 38 20 2 -18 l-27 -28 27 0 c33 0 36 -17 5 -23
-21 -4 -21 -4 3 -6 14 0 34 6 45 14 19 15 19 16 -2 31 -19 13 -20 19 -11 44
15 38 5 46 -34 26 -39 -19 -39 -19 -39 -2 0 8 -7 16 -15 20 -22 8 -18 23 7 29
22 6 22 6 3 27 -18 20 -18 22 -2 49 23 39 22 40 -20 30 -21 -4 -38 -7 -38 -6
-2 16 -27 42 -39 41 -9 -1 -16 4 -16 10 0 7 -7 21 -15 32 -14 18 -14 18 -15
-5z m20 -92 c0 -6 -4 -7 -10 -4 -5 3 -10 11 -10 16 0 6 5 7 10 4 6 -3 10 -11
10 -16z"/>
<path d="M4027 2693 c-4 -3 -7 -11 -7 -17 0 -6 5 -5 12 2 6 6 9 14 7 17 -3 3
-9 2 -12 -2z"/>
<path d="M3398 2673 c6 -2 18 -2 25 0 6 3 1 5 -13 5 -14 0 -19 -2 -12 -5z"/>
<path d="M3423 2633 c15 -2 37 -2 50 0 12 2 0 4 -28 4 -27 0 -38 -2 -22 -4z"/>
<path d="M2554 2563 c50 -99 58 -101 136 -25 l65 62 -48 -16 c-26 -9 -56 -27
-66 -40 l-19 -25 -22 39 c-12 21 -35 47 -52 56 l-29 18 35 -69z"/>
<path d="M2511 2605 c0 -5 4 -30 10 -55 11 -49 33 -80 57 -80 13 0 13 2 -1 18
-8 9 -27 42 -40 72 -14 30 -26 51 -26 45z"/>
<path d="M2605 2590 c-3 -6 5 -10 19 -10 14 0 28 5 31 10 3 6 -5 10 -19 10
-14 0 -28 -4 -31 -10z"/>
<path d="M2744 2566 c-12 -11 -40 -37 -63 -57 -47 -41 -52 -59 -15 -59 34 0
86 53 101 103 13 42 8 44 -23 13z"/>
<path d="M2460 2494 c6 -15 20 -41 33 -58 36 -51 56 -123 45 -165 -17 -66 -19
-68 -34 -31 -18 42 -49 77 -86 96 -37 19 -41 18 -24 -9 9 -12 30 -51 48 -87
19 -37 43 -69 56 -75 16 -7 22 -18 22 -42 0 -17 3 -39 6 -48 5 -11 -8 -6 -38
15 -25 18 -63 34 -87 37 l-43 6 75 -72 c43 -40 85 -71 96 -71 17 0 41 -26 41
-44 0 -3 -15 -6 -32 -7 -18 -1 -44 -4 -58 -8 -22 -7 -18 -10 35 -25 77 -22
145 -53 145 -66 0 -7 -11 -5 -27 5 -16 8 -60 26 -100 38 -58 19 -70 20 -60 8
18 -24 38 -40 79 -61 42 -23 71 -25 117 -9 26 9 31 16 31 43 0 18 7 55 15 82
l14 49 -19 -25 c-11 -14 -25 -40 -31 -57 -6 -18 -14 -33 -18 -33 -5 0 -21 18
-36 40 -31 45 -29 71 9 130 12 19 31 48 42 65 l19 30 -42 -34 c-23 -19 -51
-52 -62 -74 l-20 -40 -11 29 c-35 88 -27 108 72 175 73 50 78 59 27 48 -63
-15 -79 -27 -102 -77 -24 -55 -32 -43 -22 34 8 69 42 110 136 165 38 22 69 42
69 46 0 10 -95 -8 -117 -23 -18 -11 -23 -12 -23 -2 -1 7 -9 -3 -20 -22 l-19
-35 -1 31 c0 50 -19 91 -53 117 -55 40 -58 41 -47 11z"/>
<path d="M2435 2465 c11 -84 52 -155 89 -155 11 0 -14 62 -54 131 l-41 74 6
-50z"/>
<path d="M2606 2435 c-9 -26 -7 -32 5 -12 6 10 9 21 6 23 -2 3 -7 -2 -11 -11z"/>
<path d="M2677 2356 c-37 -23 -77 -52 -89 -64 l-22 -22 27 0 c50 0 99 36 142
103 9 15 16 27 14 26 -2 0 -34 -19 -72 -43z"/>
<path d="M4080 2335 c0 -22 -4 -25 -33 -25 -19 0 -36 -3 -40 -6 -9 -10 24 -54
40 -54 11 0 13 -4 6 -12 -6 -7 -13 -24 -16 -37 -5 -22 -4 -23 29 -18 36 6 37
4 25 -28 -6 -16 -16 -19 -50 -16 l-42 3 15 -30 c9 -17 20 -32 26 -34 7 -2 5
-15 -6 -36 -9 -18 -14 -36 -11 -39 11 -11 75 8 92 27 19 21 7 28 -13 8 -6 -6
-14 -9 -18 -6 -3 4 6 14 21 24 l26 17 -42 19 c-52 23 -47 34 6 12 l38 -15 -5
25 c-7 33 4 33 19 0 9 -20 9 -33 -1 -62 -32 -89 -66 -139 -66 -97 0 18 -21 20
-37 4 -9 -9 -20 -5 -45 16 l-33 28 -3 -44 c-3 -39 -7 -46 -32 -56 -17 -6 -30
-15 -30 -21 0 -14 79 -42 98 -34 13 5 10 8 -13 13 l-30 7 33 1 c37 1 37 2 16
42 -8 17 -13 33 -10 36 2 3 13 -12 24 -33 19 -37 19 -37 31 -15 7 12 15 20 18
17 4 -3 -8 -24 -26 -47 -18 -22 -30 -43 -26 -47 4 -4 21 11 38 33 44 55 89 97
96 89 3 -3 -4 -13 -16 -21 -25 -17 -30 -33 -10 -33 6 -1 26 -7 42 -16 l30 -14
-30 4 c-16 3 -37 7 -46 11 -13 5 -16 1 -12 -22 l4 -28 -15 25 c-12 19 -15 21
-16 8 0 -10 13 -32 30 -50 l29 -33 7 32 c6 30 10 32 52 35 l45 3 -30 32 c-30
32 -31 33 -15 68 14 30 20 35 41 30 22 -6 23 -4 17 27 -6 32 -4 35 29 47 19 7
35 16 35 20 0 10 -46 31 -66 31 -10 0 -13 6 -9 19 3 10 2 28 -3 40 l-8 22 -27
-21 -27 -21 -1 23 c-1 22 -2 20 -15 -21 -3 -10 -13 -3 -29 22 -16 23 -22 42
-18 54 6 16 5 16 -10 4 -9 -7 -17 -9 -17 -3 0 5 7 16 16 23 15 12 12 15 -22
31 l-39 18 39 -6 c35 -5 38 -4 33 15 -3 14 0 21 9 21 19 0 18 10 -3 26 -27 21
-43 16 -43 -11z m111 -243 c-16 -30 -16 -30 37 -25 35 3 43 2 32 -6 -8 -6 -30
-11 -49 -11 -32 0 -33 -1 -18 -18 25 -27 21 -38 -5 -16 l-22 19 16 -26 c16
-26 16 -27 -5 -33 -43 -11 -45 -7 -22 58 12 35 25 69 30 75 12 20 17 4 6 -17z"/>
<path d="M2371 2281 c9 -81 45 -131 95 -131 16 0 15 3 -4 23 -11 12 -34 52
-50 88 -39 87 -50 92 -41 20z"/>
<path d="M2695 2230 c-4 -6 -30 -26 -60 -45 -30 -18 -59 -44 -65 -56 -11 -20
-11 -21 16 -15 42 10 73 35 101 84 14 23 23 42 20 42 -3 0 -9 -5 -12 -10z"/>
<path d="M2658 2057 c-49 -83 -55 -107 -30 -107 43 0 66 34 72 104 3 36 3 66
0 66 -3 0 -21 -28 -42 -63z"/>
<path d="M2372 2060 c25 -60 64 -90 118 -89 31 0 33 1 12 9 -12 6 -44 31 -70
58 -79 80 -85 83 -60 22z"/>
<path d="M3251 1973 c0 -16 4 -37 9 -48 6 -15 9 -8 9 28 1 26 -3 47 -9 47 -5
0 -10 -12 -9 -27z"/>
<path d="M3303 1989 c11 -6 17 -22 17 -44 0 -19 5 -35 10 -35 6 0 10 16 10 35
0 22 6 38 18 44 13 8 7 10 -28 10 -35 0 -41 -2 -27 -10z"/>
<path d="M3396 1988 c-4 -9 -6 -29 -4 -45 2 -23 8 -29 34 -31 30 -3 32 -1 36
35 3 21 2 43 -1 48 -3 6 -8 -8 -11 -30 -3 -27 -10 -41 -22 -43 -13 -3 -18 6
-20 40 -3 30 -6 38 -12 26z"/>
<path d="M2726 1922 c-10 -40 -16 -76 -13 -79 4 -3 18 2 32 11 28 19 33 61 11
111 -13 30 -13 30 -30 -43z"/>
<path d="M3160 1979 c0 -5 4 -7 10 -4 5 3 12 -12 16 -35 4 -22 11 -40 15 -40
5 0 6 18 3 39 -5 33 -3 40 12 44 11 3 2 5 -18 6 -21 0 -38 -4 -38 -10z"/>
<path d="M3500 1977 c0 -8 -3 -29 -6 -46 -6 -30 -5 -31 30 -31 30 0 37 4 42
27 4 14 2 33 -3 42 -13 21 -63 27 -63 8z m48 -34 c-4 -36 -38 -45 -38 -10 0
27 7 37 27 37 10 0 13 -9 11 -27z"/>
<path d="M3078 1973 c-10 -2 -18 -10 -18 -17 0 -31 13 -76 22 -76 5 0 6 9 3
20 -5 16 -2 20 14 20 12 0 21 -7 21 -15 0 -8 5 -15 10 -15 7 0 8 14 4 38 -10
55 -12 57 -56 45z m32 -23 c0 -5 -7 -10 -15 -10 -8 0 -15 5 -15 10 0 6 7 10
15 10 8 0 15 -4 15 -10z"/>
<path d="M3597 1933 c-6 -34 -3 -53 7 -42 9 10 16 79 8 79 -5 0 -12 -17 -15
-37z"/>
<path d="M2978 1953 c-35 -8 -34 -77 1 -88 41 -13 72 25 52 63 -12 22 -29 30
-53 25z m40 -46 c3 -22 -1 -27 -18 -27 -23 0 -35 22 -26 46 10 25 41 12 44
-19z"/>
<path d="M3646 1938 c-3 -13 -5 -32 -5 -43 0 -16 3 -14 14 9 l13 30 7 -32 c3
-17 11 -34 16 -37 11 -7 29 37 28 68 -1 19 -2 18 -14 -8 l-14 -30 -7 33 c-8
37 -29 43 -38 10z"/>
<path d="M2883 1920 c-27 -11 -27 -13 -11 -57 12 -34 34 -48 24 -15 -5 13 1
22 16 31 22 11 22 11 -4 6 -21 -4 -28 -1 -28 10 0 8 6 15 14 15 8 0 18 5 21
10 7 12 -2 12 -32 0z"/>
<path d="M3749 1903 c-5 -16 -11 -33 -14 -40 -4 -12 52 -40 62 -30 3 4 -6 11
-21 17 -30 11 -26 34 5 25 11 -4 19 -2 19 4 0 6 -7 11 -15 11 -8 0 -15 5 -15
11 0 7 10 9 25 5 14 -4 25 -2 25 3 0 8 -32 20 -53 21 -4 0 -12 -12 -18 -27z"/>
<path d="M3165 1859 c-99 -13 -222 -44 -285 -71 l-53 -24 41 -16 c23 -9 41
-13 41 -10 -6 39 1 41 49 17 56 -28 121 -44 178 -45 55 0 133 -24 179 -55 34
-23 39 -24 54 -11 35 31 114 58 203 67 60 6 111 18 146 34 66 30 75 31 67 5
-7 -23 -5 -24 27 -11 13 5 32 12 43 16 16 5 8 12 -40 31 -174 71 -433 100
-650 73z m75 -13 c0 -3 -4 -8 -10 -11 -5 -3 -10 -1 -10 4 0 6 5 11 10 11 6 0
10 -2 10 -4z m40 -6 c-20 -13 -33 -13 -25 0 3 6 14 10 23 10 15 0 15 -2 2 -10z
m164 1 c3 -4 -29 -7 -70 -7 -40 0 -69 3 -64 6 14 9 129 9 134 1z m-249 -11 c3
-5 2 -10 -4 -10 -5 0 -13 5 -16 10 -3 6 -2 10 4 10 5 0 13 -4 16 -10z m340 -1
c-16 -5 -33 -5 -38 0 -4 4 9 8 30 8 38 1 38 1 8 -8z m178 -23 c48 -12 49 -13
25 -28 -40 -26 -90 -39 -183 -48 -68 -7 -103 -16 -147 -39 l-58 -30 -58 30
c-44 23 -79 32 -147 39 -93 9 -176 32 -194 54 -8 10 1 15 42 23 64 13 118 13
111 1 -4 -6 -22 -7 -40 -3 -21 3 -34 2 -34 -5 0 -5 -8 -10 -17 -11 -35 -2 63
-27 107 -28 60 -1 148 -25 194 -52 l37 -22 27 20 c34 25 143 53 205 53 46 0
47 0 35 26 -11 23 -16 25 -57 21 -26 -3 -37 -3 -26 0 11 3 24 8 28 12 10 10
88 3 150 -13z m-579 -7 c-17 -7 -16 -8 6 -9 21 -2 19 -3 -10 -10 -19 -5 -51
-5 -70 1 -34 9 -34 9 7 4 35 -4 43 -2 48 14 4 13 11 18 22 14 14 -6 14 -7 -3
-14z m59 4 c-7 -2 -19 -2 -25 0 -7 3 -2 5 12 5 14 0 19 -2 13 -5z m177 -2 c0
-11 -26 -22 -34 -14 -12 12 -5 23 14 23 11 0 20 -4 20 -9z m45 -21 c3 -6 -1
-7 -9 -4 -18 7 -21 14 -7 14 6 0 13 -4 16 -10z m66 -1 c-16 -6 -28 -6 -35 1
-7 7 1 10 25 9 32 0 33 -1 10 -10z m74 1 c-3 -5 -10 -10 -16 -10 -5 0 -9 5 -9
10 0 6 7 10 16 10 8 0 12 -4 9 -10z m52 4 c-3 -3 -12 -4 -19 -1 -8 3 -5 6 6 6
11 1 17 -2 13 -5z m-410 -10 c-3 -3 -12 -4 -19 -1 -8 3 -5 6 6 6 11 1 17 -2
13 -5z m114 -41 c13 -16 12 -17 -3 -4 -17 13 -22 21 -14 21 2 0 10 -8 17 -17z
m39 -11 c-6 -2 -7 -9 -4 -14 4 -6 2 -8 -3 -5 -6 4 -13 15 -16 26 -4 17 -2 18
14 8 11 -7 15 -13 9 -15z m45 18 c-3 -5 -12 -10 -18 -10 -7 0 -6 4 3 10 19 12
23 12 15 0z"/>
<path d="M4010 1792 c-19 -2 -38 -7 -42 -11 -7 -6 31 -5 82 2 30 5 -6 12 -40
9z"/>
<path d="M2673 1783 c9 -2 25 -2 35 0 9 3 1 5 -18 5 -19 0 -27 -2 -17 -5z"/>
<path d="M2833 1713 c15 -2 37 -2 50 0 12 2 0 4 -28 4 -27 0 -38 -2 -22 -4z"/>
<path d="M3818 1713 c12 -2 32 -2 45 0 12 2 2 4 -23 4 -25 0 -35 -2 -22 -4z"/>
<path d="M2778 1703 c7 -3 16 -2 19 1 4 3 -2 6 -13 5 -11 0 -14 -3 -6 -6z"/>
<path d="M3930 1695 c24 -8 46 -13 48 -11 5 5 -59 26 -77 25 -9 0 4 -7 29 -14z"/>
<path d="M2690 1675 c-14 -8 -20 -14 -15 -14 6 0 21 6 35 14 14 8 21 14 15 14
-5 0 -21 -6 -35 -14z"/>
<path d="M4000 1670 c8 -5 20 -10 25 -10 6 0 3 5 -5 10 -8 5 -19 10 -25 10 -5
0 -3 -5 5 -10z"/>
<path d="M3658 1583 c-17 -4 -18 -27 -18 -309 l0 -304 70 0 70 0 0 310 0 310
-52 -1 c-29 -1 -61 -3 -70 -6z"/>
<path d="M1620 1270 l0 -300 70 0 70 0 0 115 0 115 96 0 96 0 -7 53 c-4 28 -9
55 -12 60 -2 4 -42 7 -89 7 l-85 0 3 68 3 67 118 3 117 3 0 32 c0 18 -3 42 -6
55 -6 22 -8 22 -190 22 l-184 0 0 -300z"/>
<path d="M2898 1503 l-38 -4 0 -60 c0 -59 0 -59 -30 -59 -30 0 -30 -1 -30 -55
0 -54 0 -55 30 -55 l30 0 0 -90 c0 -54 6 -104 14 -123 31 -76 137 -120 230
-96 25 6 49 16 52 20 3 5 -2 30 -12 54 -16 43 -18 45 -50 39 -71 -13 -94 18
-94 126 l0 70 60 0 61 0 -6 38 c-12 70 -13 71 -63 74 l-47 3 -3 63 -3 62 -32
-2 c-18 -1 -49 -3 -69 -5z"/>
<path d="M2140 1401 c-110 -36 -160 -106 -160 -224 0 -81 29 -141 88 -182 38
-26 54 -30 124 -34 96 -4 149 13 202 66 40 40 56 84 56 153 0 137 -80 219
-220 226 -36 2 -76 0 -90 -5z m115 -117 c25 -10 45 -58 45 -108 0 -54 -29 -93
-77 -102 -27 -5 -37 -1 -63 24 -26 27 -30 37 -30 87 0 46 4 60 25 80 24 25 65
32 100 19z"/>
<path d="M3280 1394 c-30 -8 -58 -18 -62 -22 -5 -5 -1 -30 8 -56 16 -46 18
-48 48 -41 82 17 96 17 121 1 45 -29 32 -46 -35 -46 -105 0 -159 -36 -167
-112 -7 -58 17 -112 59 -138 45 -27 140 -28 185 -1 27 17 33 18 43 5 7 -8 30
-14 51 -14 l39 0 0 133 c-1 161 -11 211 -53 255 -51 53 -130 65 -237 36z m140
-268 c0 -43 -69 -73 -98 -44 -30 30 2 68 59 68 35 0 39 -3 39 -24z"/>
<path d="M3988 1400 c-81 -24 -130 -79 -148 -168 -24 -108 24 -212 115 -253
69 -32 233 -22 271 15 9 8 7 22 -7 54 -18 42 -20 43 -51 35 -65 -16 -124 -10
-152 16 -14 14 -26 28 -26 33 0 4 61 8 135 8 l135 0 0 49 c0 157 -126 255
-272 211z m114 -127 c10 -9 18 -24 18 -34 0 -16 -8 -18 -61 -17 -33 1 -63 6
-65 10 -3 5 2 20 10 33 20 30 70 34 98 8z"/>
<path d="M4761 1394 c-29 -8 -57 -16 -61 -19 -14 -9 26 -111 41 -106 8 2 38 9
66 14 46 9 55 8 73 -8 36 -33 26 -45 -40 -45 -111 0 -164 -41 -164 -129 1 -57
25 -106 64 -126 42 -22 132 -19 181 5 34 18 40 19 45 5 4 -10 19 -15 45 -15
l39 0 0 153 c0 139 -2 157 -22 197 -42 82 -138 109 -267 74z m147 -271 c2 -16
-5 -26 -27 -37 -42 -22 -68 -20 -82 6 -10 18 -8 24 11 40 33 27 94 21 98 -9z"/>
<path d="M4297 1394 c-6 -6 -3 -33 9 -91 4 -20 11 -22 75 -25 l71 -3 -90 -118
c-85 -111 -90 -120 -81 -150 5 -17 9 -33 9 -34 0 -2 81 -3 180 -3 l180 0 0 24
c0 13 -3 38 -6 55 l-6 31 -89 0 -89 0 90 118 c88 115 96 133 84 180 -6 22 -9
22 -168 22 -90 0 -165 -3 -169 -6z"/>
<path d="M2480 1180 l0 -210 75 0 75 0 0 134 0 134 49 21 c27 11 57 21 66 21
13 0 16 6 11 26 -4 15 -10 39 -13 55 -7 36 -37 38 -102 9 l-44 -20 -22 20
c-13 13 -35 20 -58 20 l-37 0 0 -210z"/>
<path d="M2060 595 c0 -108 1 -115 20 -115 17 0 20 7 20 40 0 38 2 40 30 40
43 0 78 19 87 49 21 65 -17 101 -107 101 l-50 0 0 -115z m112 69 c4 -3 8 -16
8 -30 0 -27 -38 -51 -64 -41 -16 6 -23 67 -10 80 6 6 52 0 66 -9z"/>
<path d="M2330 595 c0 -108 1 -115 20 -115 17 0 20 7 20 45 0 38 3 45 20 45
12 0 29 -16 46 -45 16 -28 33 -45 45 -45 24 0 24 3 -6 54 -25 43 -25 43 -5 61
29 26 26 69 -6 94 -20 15 -41 21 -80 21 l-54 0 0 -115z m108 62 c6 -5 12 -13
12 -18 0 -16 -32 -39 -56 -39 -21 0 -24 5 -24 33 0 19 3 36 6 39 7 7 45 -2 62
-15z"/>
<path d="M2600 595 l0 -115 81 0 c60 0 80 3 77 13 -3 7 -27 13 -61 15 l-57 3
0 34 c0 33 2 35 36 35 45 0 42 24 -4 28 -29 3 -32 6 -32 38 l0 34 50 0 c38 0
50 4 50 15 0 12 -14 15 -70 15 l-70 0 0 -115z"/>
<path d="M2860 595 c0 -108 1 -115 20 -115 17 0 20 7 20 50 0 49 1 50 30 50
20 0 30 5 30 15 0 10 -10 15 -30 15 -28 0 -30 3 -30 35 0 35 0 35 45 35 33 0
45 4 45 15 0 12 -14 15 -65 15 l-65 0 0 -115z"/>
<path d="M3080 595 l0 -115 80 0 c64 0 80 3 80 15 0 12 -13 15 -55 15 l-55 0
0 35 c0 32 2 35 30 35 20 0 30 5 30 15 0 10 -10 15 -30 15 -28 0 -30 3 -30 35
l0 35 50 0 c40 0 48 3 44 15 -5 11 -23 15 -75 15 l-69 0 0 -115z"/>
<path d="M3340 595 c0 -108 1 -115 20 -115 19 0 20 7 20 115 0 108 -1 115 -20
115 -19 0 -20 -7 -20 -115z"/>
<path d="M3470 695 c0 -10 11 -15 35 -15 l35 0 0 -100 c0 -93 1 -100 20 -100
18 0 20 8 22 98 l3 97 38 3 c24 2 37 8 37 18 0 11 -19 14 -95 14 -78 0 -95 -3
-95 -15z"/>
<path d="M3750 631 c0 -97 10 -125 51 -146 41 -22 92 -12 119 22 17 21 20 40
20 114 0 82 -2 89 -20 89 -18 0 -20 -7 -20 -83 0 -97 -11 -120 -55 -115 -40 4
-55 37 -55 126 0 65 -2 72 -20 72 -18 0 -20 -7 -20 -79z"/>
<path d="M4060 595 c0 -108 1 -115 20 -115 17 0 20 7 20 46 0 41 2 45 22 42
15 -2 31 -18 46 -45 15 -28 30 -43 43 -43 24 0 24 3 -6 54 -25 43 -25 43 -5
61 29 26 26 69 -6 94 -20 15 -41 21 -80 21 l-54 0 0 -115z m108 63 c7 -7 12
-15 12 -19 0 -16 -33 -39 -56 -39 -21 0 -24 5 -24 35 0 32 3 35 28 35 15 0 33
-5 40 -12z"/>
<path d="M4352 603 c-23 -59 -42 -111 -42 -116 0 -4 9 -7 20 -7 13 0 22 9 26
25 5 22 11 25 53 25 41 0 49 -3 59 -25 7 -15 20 -25 32 -25 11 0 20 1 20 3 0
2 -20 52 -44 112 -60 150 -70 150 -124 8z m77 6 c6 -18 11 -34 11 -35 0 -2
-14 -4 -31 -4 -26 0 -30 3 -24 18 4 9 10 25 12 35 8 26 20 21 32 -14z"/>
</g>
</svg>
